<!-- icon666.com - MILLIONS vector ICONS FREE --><svg version="1.1" id="Capa_1" xmlns="http://www.w3.org/2000/svg" xmlns:xlink="http://www.w3.org/1999/xlink" x="0px" y="0px" viewBox="0 0 512 512" style="enable-background:new 0 0 512 512;" xml:space="preserve"><linearGradient id="SVGID_1_" gradientUnits="userSpaceOnUse" x1="256" y1="514" x2="256" y2="2" gradientTransform="matrix(1 0 0 -1 0 514)"><stop offset="0" style="stop-color:#2AF598"></stop><stop offset="1" style="stop-color:#009EFD"></stop></linearGradient><path style="fill:url(#SVGID_1_);" d="M379.694,132.34c-12.291-36.113-35.346-68.437-65.738-91.864C279.605,13.997,238.471,0,195,0 C87.477,0,0,87.477,0,195c0,83.956,53.799,158.119,132.345,184.708C158.514,456.563,231.404,512,317,512 c107.523,0,195-87.477,195-195C512,231.399,456.556,158.506,379.694,132.34z M40,195c0-85.467,69.533-155,155-155 c58.114,0,110.638,32.719,137.07,82.578c-4.974-0.382-10-0.578-15.07-0.578c-107.523,0-195,87.477-195,195 c0,5.082,0.197,10.118,0.581,15.103C72.667,305.723,40,253.337,40,195z M317,472c-85.467,0-155-69.533-155-155s69.533-155,155-155 s155,69.533,155,155S402.467,472,317,472z M389,221c0,11.046-8.954,20-20,20s-20-8.954-20-20s8.954-20,20-20S389,209.954,389,221z M362,290c0,11.046-8.954,20-20,20s-20-8.954-20-20s8.954-20,20-20S362,278.954,362,290z M311,342c0,11.046-8.954,20-20,20 s-20-8.954-20-20s8.954-20,20-20S311,330.954,311,342z M243,368c0,11.046-8.954,20-20,20s-20-8.954-20-20s8.954-20,20-20 S243,356.954,243,368z"></path></svg>